<svg width="2342" height="2500" viewBox="0 0 2342 2500" fill="none" xmlns="http://www.w3.org/2000/svg">
<path d="M471.435 3.65475C417.345 11.6259 417.345 12.1952 470.296 25.86C504.458 34.9699 504.458 40.6635 470.296 37.8167C439.55 35.5392 388.307 45.7878 363.255 59.4526L346.174 68.5624L363.255 70.2705C382.044 72.548 397.417 82.7965 381.475 82.7965C361.547 82.7965 310.304 106.71 286.96 126.068C263.047 146.565 259.061 156.814 278.989 146.565C292.654 139.733 343.327 134.039 343.327 139.733C343.327 142.011 337.064 145.996 329.663 147.704C298.917 155.675 257.353 209.765 248.243 255.884L244.827 271.826L269.31 254.176C300.625 231.401 307.457 231.97 289.807 255.314C269.879 280.936 247.674 331.609 243.688 358.939C239.703 385.13 236.856 469.965 239.703 469.965C240.842 469.965 246.535 464.271 252.798 456.87L263.616 444.344L260.2 461.425C254.506 487.615 241.98 508.682 228.885 516.084C217.498 521.777 216.928 525.763 219.206 563.341C222.053 607.751 237.995 648.746 249.951 644.191C256.214 641.913 257.923 651.593 258.492 690.879C258.492 732.443 266.463 798.489 268.741 780.269C269.31 776.853 275.004 768.313 281.267 760.341L293.223 746.107L289.807 776.853C286.391 812.154 294.931 881.047 306.888 915.209L314.859 938.553L303.472 928.304C290.946 916.917 240.842 821.264 240.842 808.737C240.842 804.183 239.134 799.628 236.287 797.92C234.009 796.781 232.87 805.891 234.009 818.986C235.717 834.359 234.579 840.622 230.593 837.206C219.206 825.249 212.373 775.714 212.373 706.821C212.373 667.535 210.665 635.081 208.957 635.081C202.694 635.081 104.763 721.055 81.9886 746.677C42.133 791.657 14.8035 847.454 3.98556 905.53L0 928.304L21.0665 909.515C32.4538 899.836 42.7024 891.295 43.8411 891.295C44.9799 891.295 39.8556 906.668 32.4538 925.457C22.7746 948.801 17.6503 976.131 14.8035 1013.71C11.3873 1070.08 16.5116 1083.17 30.1764 1050.72C34.1619 1041.61 40.425 1031.36 44.4105 1027.94C50.6735 1022.25 51.8123 1030.22 48.9654 1072.35C46.688 1111.07 48.3961 1134.41 55.7978 1166.87C61.4915 1190.78 67.7545 1210.14 70.6013 1210.14C72.8788 1210.14 76.295 1202.74 78.5724 1193.06C84.2661 1167.44 92.8066 1166.87 92.8066 1192.49C92.8066 1218.68 105.902 1285.3 116.151 1309.78C121.844 1324.58 123.552 1325.15 125.26 1315.47C129.246 1297.25 139.495 1272.77 143.48 1272.77C152.021 1272.77 168.532 1420.24 165.116 1461.23C161.13 1505.64 160.561 1505.64 197 1472.62L213.512 1457.81L208.957 1474.33C206.68 1484 193.584 1515.32 179.919 1544.36C166.824 1573.4 155.437 1598.45 155.437 1599.59C155.437 1601.29 166.255 1597.88 179.35 1591.61C193.015 1585.92 204.402 1581.94 205.541 1583.07C206.68 1584.21 196.431 1601.29 182.197 1621.22C149.743 1666.77 125.83 1714.6 110.457 1764.7C94.5147 1815.38 95.084 1818.79 115.581 1799.43C124.691 1790.32 133.801 1784.63 135.509 1786.34C137.217 1788.05 134.37 1800.57 129.246 1814.24C120.705 1838.15 110.457 1938.93 117.289 1938.93C118.997 1938.93 126.399 1929.25 133.801 1917.29L146.896 1896.23L150.312 1970.24C153.159 2037.43 163.408 2092.66 171.948 2092.66C173.656 2092.66 180.489 2081.84 186.183 2068.17L197.57 2044.26L200.986 2095.5C203.263 2123.4 208.388 2154.15 211.804 2163.83L219.206 2180.91L226.607 2162.12C236.856 2138.21 246.535 2138.78 246.535 2164.4C246.535 2175.21 250.521 2202.54 255.645 2225.32C264.186 2262.9 264.186 2268.59 255.645 2306.74C248.243 2338.05 238.564 2358.55 214.651 2392.14C191.307 2426.3 183.905 2441.68 183.905 2457.62C183.905 2494.06 183.905 2494.06 371.226 2495.77C464.033 2496.91 551.146 2496.34 564.811 2494.06C583.03 2491.21 594.418 2484.95 609.221 2469.58C628.58 2448.51 628.58 2447.94 626.302 2405.81C622.886 2352.29 613.207 2328.94 575.059 2281.12C544.883 2243.54 525.524 2215.64 525.524 2209.38C525.524 2207.67 530.649 2208.81 536.342 2212.22C542.605 2215.07 554.562 2220.76 563.102 2223.61C577.906 2229.3 577.906 2229.3 569.935 2216.78C557.978 2198.56 536.912 2139.91 536.912 2125.68C536.912 2114.29 538.62 2114.86 556.27 2131.94C580.183 2155.29 580.183 2154.72 588.155 2057.36C591.571 2015.79 595.556 1981.06 596.695 1979.35C598.403 1978.21 605.236 1990.74 612.637 2007.25L626.302 2037.43L631.996 2012.38C643.952 1964.55 645.66 1941.77 639.967 1901.92C636.551 1880.28 635.412 1860.92 637.12 1859.22C638.828 1857.51 647.938 1865.48 657.617 1876.3L674.698 1896.23L672.421 1833.6C670.713 1774.95 669.004 1768.12 649.646 1726.55C638.259 1702.64 629.718 1682.71 630.857 1682.71C631.996 1682.71 642.244 1687.84 653.062 1694.67C664.45 1701.5 673.559 1704.92 673.559 1703.21C673.559 1691.82 621.747 1606.42 578.475 1546.07L568.227 1531.83L596.126 1548.34C620.039 1562.01 623.455 1563.15 619.47 1554.04C604.097 1515.32 582.461 1448.13 579.045 1426.5C574.49 1397.46 569.935 1395.75 631.996 1443.58C650.215 1457.81 671.851 1473.76 679.253 1479.45C693.487 1489.7 693.487 1489.7 680.392 1486.85L667.866 1484.57L683.239 1513.04C702.028 1547.77 743.591 1586.49 783.447 1605.28C810.776 1618.38 813.623 1618.94 819.886 1610.4C830.704 1596.74 869.421 1493.11 881.378 1447.57C887.071 1426.5 893.904 1409.42 896.181 1409.42C902.444 1409.42 902.444 1442.44 896.181 1479.45C893.904 1494.25 893.334 1506.21 894.473 1506.21C896.181 1506.21 903.583 1500.52 910.985 1493.68C923.511 1482.3 924.08 1481.73 924.08 1492.55C924.08 1507.92 896.181 1563.72 859.173 1622.36C841.522 1650.26 827.288 1675.31 827.288 1677.59C827.288 1680.44 835.829 1677.59 846.077 1671.33C855.756 1665.06 867.144 1659.94 870.56 1659.94C874.545 1659.94 866.005 1682.14 851.771 1709.47C832.412 1748.76 825.58 1769.83 821.594 1804.56C818.178 1829.61 817.039 1850.68 818.178 1852.38C819.886 1853.52 828.427 1846.12 838.106 1835.3C858.034 1813.67 858.034 1813.67 847.216 1890.53C842.661 1921.85 838.675 1956.58 838.675 1967.4V1987.32L853.479 1965.69C861.45 1953.73 868.852 1944.62 869.99 1945.76C875.684 1952.59 858.603 2095.5 847.785 2128.53C836.967 2161.55 836.398 2166.67 843.8 2163.26C875.115 2150.73 875.684 2151.87 852.91 2192.86C819.886 2252.65 804.513 2285.1 800.528 2305.03C797.112 2321.54 797.681 2322.68 806.222 2315.28C811.346 2311.29 815.901 2310.15 815.901 2313.57C815.901 2316.42 812.485 2322.11 807.93 2325.53C794.834 2336.91 741.883 2415.49 735.62 2434.28C726.51 2458.76 733.343 2478.12 754.979 2489.5C771.49 2498.61 793.126 2499.75 981.017 2499.75C1208.19 2499.75 1217.3 2498.61 1228.12 2467.3C1234.95 2448.51 1225.84 2416.06 1206.49 2387.59C1192.82 2367.09 1184.28 2303.89 1191.68 2274.85C1195.1 2261.19 1196.24 2261.76 1208.76 2286.24L1221.86 2311.86L1235.52 2263.47C1242.92 2236.71 1250.33 2196.85 1252.6 2175.21C1254.31 2153.01 1257.73 2130.23 1260.01 2123.97C1263.42 2114.29 1265.13 2116 1271.96 2134.22C1275.95 2145.61 1281.07 2155.29 1283.35 2155.29C1289.61 2155.29 1299.86 2092.66 1299.86 2054.51C1299.86 2016.36 1304.42 2010.1 1316.94 2032.87C1320.93 2040.84 1327.19 2047.11 1330.04 2047.11C1336.3 2047.11 1331.75 1899.64 1324.91 1876.3C1320.93 1862.06 1320.93 1862.06 1339.72 1879.14C1349.97 1888.25 1363.06 1903.63 1368.75 1913.31L1379.57 1930.39V1898.5C1379.57 1863.2 1363.06 1792.6 1345.98 1753.88C1339.72 1739.65 1336.87 1728.26 1339.15 1728.26C1341.99 1728.26 1357.37 1742.5 1373.31 1759.58C1403.49 1790.89 1403.49 1791.46 1399.5 1772.67C1390.96 1728.26 1371.03 1679.87 1342.56 1633.18C1326.05 1605.85 1313.53 1581.94 1314.66 1580.8C1315.8 1579.09 1328.9 1586.49 1343.13 1596.74C1357.94 1606.99 1370.46 1613.82 1371.6 1612.68C1377.86 1606.42 1322.64 1475.46 1300.43 1444.15C1281.07 1416.82 1286.2 1413.4 1319.79 1431.05C1336.87 1440.73 1351.1 1447.57 1351.1 1446.43C1351.1 1445.86 1340.86 1404.29 1328.33 1355.33C1315.8 1306.36 1305.56 1263.66 1305.56 1260.81C1305.56 1257.97 1318.65 1264.23 1335.16 1275.05C1351.67 1286.44 1365.34 1294.41 1365.91 1293.84C1366.48 1293.27 1360.78 1252.84 1353.38 1204.45C1345.98 1156.05 1340.29 1111.07 1340.29 1104.81C1340.29 1094.56 1340.86 1094.56 1349.97 1107.08C1377.86 1147.51 1376.73 1149.22 1373.31 1052.43C1367.05 895.281 1342.56 802.474 1291.32 740.414L1281.64 729.026L1286.2 740.414C1290.75 754.648 1296.45 838.914 1293.03 854.287C1291.32 862.827 1286.2 857.134 1272.53 831.512C1253.17 795.642 1210.47 742.691 1217.3 763.188C1229.83 800.766 1224.14 919.764 1209.33 919.764C1207.62 919.764 1202.5 904.391 1199.08 886.171C1192.25 848.593 1170.62 799.058 1151.83 777.422C1141.58 766.035 1139.87 765.466 1143.29 774.576C1158.09 815.57 1164.35 858.272 1162.07 908.376C1160.37 938.553 1156.95 967.59 1153.53 973.853C1148.41 982.963 1146.13 979.547 1138.16 953.356C1133.04 936.275 1123.36 911.793 1115.96 898.697L1103.43 874.784L1102.86 944.246C1102.29 982.394 1099.44 1019.97 1096.03 1027.94C1090.33 1041.61 1089.77 1040.47 1073.82 1006.31C1059.02 972.715 1050.48 962.466 1051.05 977.839C1051.05 981.825 1050.48 999.475 1049.91 1016.56L1048.2 1047.87L1036.25 1022.25C1027.14 1002.89 1023.72 981.825 1022.01 932.29C1020.3 890.157 1021.44 868.521 1025.43 868.521C1028.84 868.521 1039.09 878.2 1048.77 889.587C1062.44 906.099 1066.42 908.376 1066.42 899.836C1066.42 881.616 1048.2 815.57 1034.54 784.255C1027.14 768.313 1023.15 754.648 1024.86 754.648C1029.41 754.648 1061.87 777.992 1078.95 793.365C1087.49 801.336 1096.03 807.029 1097.17 805.321C1101.72 800.766 1072.68 735.289 1054.46 709.668L1036.81 684.616L1066.42 688.032C1082.36 689.74 1103.43 695.434 1113.11 700.558C1122.79 705.113 1131.9 707.96 1133.04 706.821C1137.59 702.266 1097.74 635.65 1077.24 614.584C1064.71 602.058 1056.74 590.101 1058.45 587.824C1066.42 580.422 1146.13 583.838 1167.2 592.379L1187.7 600.919L1176.88 588.962C1171.18 582.13 1156.38 571.881 1144.42 566.188C1088.06 537.15 1174.6 538.289 1236.66 566.757C1293.6 593.517 1357.94 661.841 1392.1 731.873C1406.33 761.48 1420 793.365 1421.71 803.044C1425.12 818.986 1423.98 818.417 1396.65 788.81L1367.62 757.495L1384.13 791.657C1419.43 863.397 1451.88 1006.31 1446.76 1066.09L1445.05 1087.73L1431.95 1063.24C1424.55 1049.58 1418.29 1039.33 1417.15 1040.47C1416.58 1041.04 1417.72 1072.92 1420 1110.5C1422.28 1148.08 1424.55 1230.07 1424.55 1292.13L1425.12 1405.43L1410.89 1392.34C1393.24 1375.83 1393.24 1376.39 1411.46 1464.08C1419.43 1503.36 1424.55 1536.96 1422.84 1538.66C1421.71 1540.37 1412.03 1535.82 1402.92 1528.98C1393.24 1522.15 1385.27 1518.17 1385.27 1519.87C1385.27 1521.58 1400.64 1556.88 1419.43 1597.88C1438.22 1639.44 1452.45 1674.17 1451.31 1675.31C1450.17 1676.45 1442.77 1674.74 1434.23 1671.9C1416.01 1664.49 1415.44 1667.34 1433.66 1690.68C1453.59 1716.31 1476.36 1770.4 1480.35 1801.14L1483.77 1827.33L1458.71 1806.84L1433.66 1786.34L1432.52 1851.25C1430.82 1913.31 1423.41 1982.77 1416.58 1989.03C1414.87 1990.74 1409.18 1987.89 1403.49 1982.77C1388.68 1969.1 1385.27 1970.81 1385.27 1991.31C1385.27 2022.06 1356.23 2110.88 1348.26 2104.04C1343.7 2100.06 1336.87 2110.88 1324.34 2144.47L1306.69 2190.59L1323.21 2230.44C1332.32 2252.65 1349.97 2285.1 1361.92 2303.32L1384.13 2336.34L1354.52 2361.97C1338.01 2376.2 1314.66 2392.14 1302.14 2397.27C1266.84 2412.07 1248.62 2432.57 1248.62 2458.19C1248.62 2475.84 1250.9 2480.96 1262.28 2485.52C1269.69 2487.8 1367.62 2491.21 1480.35 2492.35C1665.96 2494.06 1685.89 2492.92 1699.56 2484.38C1720.62 2470.72 1723.47 2455.91 1712.08 2418.33C1704.68 2394.99 1701.83 2362.54 1700.69 2303.32C1699.56 2224.75 1698.42 2215.64 1673.93 2124.54L1647.74 2027.75L1667.67 2005.54C1697.28 1973.09 1738.84 1907.04 1757.63 1863.2C1766.17 1842.14 1775.28 1825.05 1777.56 1825.05C1779.27 1825.05 1793.5 1854.09 1808.87 1889.39C1835.63 1950.88 1873.78 2027.18 1936.98 2145.04C1958.05 2184.32 1968.87 2212.22 1974.56 2244.68C1979.68 2269.16 1985.38 2295.92 1988.79 2304.46C1993.35 2319.26 1991.07 2322.68 1958.62 2351.72C1939.26 2368.8 1909.08 2392.71 1892 2404.1C1839.05 2441.11 1831.08 2477.55 1873.21 2491.78C1895.42 2499.75 2193.2 2503.17 2275.18 2496.34C2333.26 2491.78 2334.97 2488.93 2327.57 2402.96C2324.15 2369.37 2325.86 2340.9 2333.26 2297.63C2352.05 2187.17 2338.95 2098.35 2287.71 1984.48C2273.48 1952.59 2258.67 1915.58 2255.26 1901.92C2247.85 1875.16 2248.99 1868.33 2272.34 1770.97C2287.14 1707.77 2285.43 1533.54 2268.35 1454.97C2236.47 1305.22 2174.98 1180.53 2089 1091.71C1987.09 985.241 1892 946.524 1698.42 931.72C1567.46 922.041 1534.44 898.128 1471.24 768.313C1376.16 573.02 1284.49 493.309 1125.64 467.688C1085.78 460.855 1082.36 459.716 1094.89 454.023C1109.12 448.329 1108.55 448.329 1082.93 436.942C1051.05 423.277 1007.21 395.948 1010.62 392.531C1012.33 391.393 1024.29 394.239 1037.95 398.794C1051.62 403.349 1063.57 406.765 1064.71 405.627C1065.28 404.488 1054.46 394.809 1039.09 384.56C1000.38 356.661 940.592 298.017 891.057 239.372C798.25 128.346 742.453 78.811 689.502 60.5913C661.603 50.3427 660.464 49.204 672.99 44.6491C685.516 39.5248 684.377 38.386 655.909 26.9987C593.279 2.51602 530.079 -5.4551 471.435 3.65475ZM761.242 183.574C785.155 196.1 822.164 235.956 840.953 270.118C858.603 302.572 856.895 312.82 837.537 295.739C827.288 286.629 827.857 288.337 839.814 304.849C860.881 333.317 890.488 397.086 887.071 407.335C884.794 414.737 888.21 415.875 904.722 414.167C930.343 411.32 950.271 428.401 958.812 460.855C965.644 486.477 961.658 526.332 949.702 541.705C942.869 551.384 942.3 549.107 945.147 521.208C949.132 481.922 937.176 449.468 914.97 441.497C895.043 433.526 875.115 446.052 869.99 470.534C866.574 484.769 868.852 491.032 880.239 502.988C912.693 538.289 945.147 627.679 950.271 697.711L953.687 740.414L937.176 713.653L920.664 686.324V747.815C921.233 781.408 918.956 813.862 916.678 820.125C912.124 829.804 910.415 828.096 901.306 805.891L891.057 780.269L887.071 797.35C881.947 822.972 856.326 887.879 847.785 900.405C840.953 909.515 839.245 905.53 835.829 865.674C834.12 840.622 830.135 808.168 827.857 792.795C822.164 761.48 826.149 758.633 840.953 783.685C846.647 793.365 852.34 799.628 854.048 798.489C858.603 793.365 843.8 707.39 832.412 677.783L822.164 649.315L850.632 680.061C873.407 703.974 878.531 707.96 876.254 697.142C874.545 689.74 871.699 673.798 869.99 661.272C864.866 631.665 843.8 584.977 825.011 562.202C808.499 543.413 811.346 537.72 830.704 552.523C836.398 557.078 843.8 561.064 846.077 561.064C854.618 561.064 815.901 510.959 790.279 488.185C776.045 475.659 764.658 464.271 764.658 462.563C764.658 457.439 798.82 468.826 813.623 478.506C821.025 483.06 828.427 487.046 830.135 487.046C834.69 487.046 810.776 440.927 794.834 419.861C779.461 399.364 780.6 397.656 805.652 410.751L823.303 419.861L819.317 386.268C810.776 313.959 767.505 260.439 693.487 229.693L676.406 222.86L698.611 220.583C722.525 218.306 766.366 231.97 783.447 246.774C788.571 251.329 793.126 252.467 793.126 249.051C793.126 242.219 738.467 185.852 721.955 175.603C711.707 169.34 712.276 168.771 727.649 172.187C737.328 173.895 752.132 179.019 761.242 183.574ZM453.215 455.731C464.602 463.702 474.281 472.812 474.281 475.659C474.281 480.214 396.848 451.176 389.446 444.344C388.307 442.636 396.848 441.497 409.374 441.497C424.177 441.497 438.981 446.621 453.215 455.731ZM935.468 497.864C935.468 512.098 934.898 511.529 921.233 491.601C913.262 480.214 906.999 467.688 906.999 463.702C906.999 459.716 913.262 462.563 921.233 469.965C929.204 477.367 935.468 489.893 935.468 497.864ZM614.915 497.295C600.111 513.237 602.958 515.514 625.163 506.404C635.981 502.419 661.603 498.433 682.669 498.433C717.97 498.433 721.386 499.572 739.606 517.792C750.424 528.61 758.964 542.844 758.964 549.107C758.964 559.925 756.687 561.064 737.328 557.647C721.955 555.37 709.429 557.078 697.473 563.341C676.406 574.159 671.282 574.728 676.976 565.618C681.531 558.217 680.961 558.786 639.967 586.685C602.958 611.168 591.571 612.876 600.111 591.809C608.082 569.035 602.958 569.604 587.585 592.379C567.088 622.555 553.993 616.861 553.993 577.575C553.993 553.662 543.744 562.202 536.342 592.948L529.51 618.569L503.888 594.087C487.377 578.144 479.975 573.59 482.253 580.991C484.53 587.254 487.946 599.78 489.654 609.46C493.071 625.402 492.501 625.971 482.253 618C476.559 613.445 465.741 604.905 458.909 598.642C451.507 592.379 445.813 590.101 445.813 593.517C445.813 596.934 449.799 602.627 454.354 606.613C479.975 627.679 439.55 627.11 397.986 606.043C378.059 595.795 376.351 595.795 383.752 604.335C391.154 613.445 390.585 614.015 374.073 610.598C363.825 608.89 349.59 605.474 341.619 603.766C329.663 600.35 325.677 602.627 318.845 616.292L310.304 632.234L305.749 615.723C300.056 592.948 312.012 573.02 340.481 557.078C354.145 549.676 359.27 543.983 353.576 543.983C347.882 543.983 343.327 541.705 343.327 538.858C343.327 532.026 375.212 526.332 392.293 529.748C437.842 539.428 438.411 539.428 426.455 529.748C420.192 525.193 416.206 520.069 417.914 518.93C419.053 517.792 441.828 519.5 468.588 522.916L516.984 528.61L562.533 508.113C614.915 484.199 629.149 481.352 614.915 497.295ZM679.253 626.541C675.267 631.665 662.172 635.081 649.077 635.081C622.316 635.081 625.163 630.526 658.187 618C682.669 608.321 691.21 612.306 679.253 626.541ZM747.577 643.052C747.577 681.2 708.291 709.668 667.866 700.558C649.646 696.572 644.522 686.324 660.464 686.324C675.267 686.324 662.172 677.783 633.704 669.243L608.082 661.272L642.244 657.856C675.837 654.439 700.889 644.76 708.86 632.804C711.138 629.387 714.554 628.818 716.831 630.526C719.109 632.804 716.262 641.344 711.138 649.315C701.458 664.119 701.458 664.119 712.846 657.856C719.678 654.439 728.788 645.33 733.912 637.928C745.869 619.139 747.577 619.708 747.577 643.052ZM453.784 658.425L471.435 658.994L452.646 666.965C436.703 674.367 432.148 673.798 417.345 666.396C395.14 655.009 395.709 649.885 417.914 654.439C427.593 656.148 444.105 657.856 453.784 658.425ZM425.316 694.864C434.995 692.587 447.521 689.74 453.784 688.032C470.296 683.477 459.478 696.003 435.565 709.099L414.498 721.055L433.287 718.778C456.062 716.5 456.631 721.055 434.995 733.581C412.79 746.677 401.972 745.538 379.197 730.165C356.992 715.362 354.715 707.39 375.212 714.792C383.183 718.208 394.001 720.486 399.125 719.916C405.388 719.916 404.25 717.639 394.57 714.223C379.197 707.96 360.408 692.587 360.408 686.324C360.408 684.046 371.226 685.755 383.752 690.309C397.417 694.864 415.067 696.572 425.316 694.864ZM625.163 690.879C635.412 696.572 633.704 697.142 613.776 697.711C591.571 697.711 565.38 710.237 565.38 720.486C565.38 723.333 573.351 722.763 583.03 719.347C592.709 715.931 612.068 714.792 626.871 716.5C647.938 718.778 657.048 723.333 672.421 740.414C690.071 759.203 691.779 764.327 689.502 785.963C687.794 800.197 680.392 818.417 670.713 830.943C653.062 854.287 659.895 857.134 688.932 839.483C699.181 832.651 711.707 829.235 716.262 830.943C730.496 836.067 747.577 877.631 747.008 906.668V933.998L732.773 905.53C719.109 877.061 719.109 877.631 728.788 927.165C732.204 943.108 731.635 944.246 718.539 940.261C711.138 937.983 687.794 933.429 666.727 930.012C622.316 923.18 561.394 932.859 512.429 955.634C478.267 971.007 471.435 970.437 459.478 947.663C451.507 931.151 446.952 882.755 453.215 875.923C454.923 874.215 464.602 875.923 474.851 879.339C498.764 887.879 502.18 883.324 481.683 870.798C435.565 841.761 421.9 811.584 437.842 771.729C451.507 737.567 494.209 721.055 526.094 737.567C541.467 746.107 540.328 734.72 524.386 723.902C517.553 718.778 504.458 714.792 495.917 714.792C486.808 714.792 479.975 712.515 479.975 709.099C479.975 698.85 502.75 691.448 522.108 695.434C532.926 697.142 546.591 696.003 552.285 692.587C560.825 687.463 559.117 686.893 544.883 689.74C534.634 691.448 525.524 690.309 523.247 686.893C518.123 678.922 610.36 681.769 625.163 690.879ZM437.842 900.405C429.302 922.611 429.302 922.611 429.302 904.96C428.732 895.85 431.579 885.032 435.565 881.047C445.813 870.798 446.383 875.923 437.842 900.405ZM1515.65 978.408C1546.4 1005.74 1617 1048.44 1622.12 1043.32C1623.83 1042.18 1611.87 1026.8 1595.93 1009.15C1565.19 975.562 1561.77 968.16 1577.71 973.284C1582.84 974.992 1631.23 978.978 1684.18 982.394C1790.65 988.657 1839.62 997.197 1892 1018.26C1947.8 1041.04 1988.22 1067.8 2037.76 1115.06C2102.67 1176.55 2150.49 1251.13 2186.36 1345.65C2200.6 1383.8 2199.46 1383.8 2165.3 1358.74L2145.37 1343.94L2156.76 1361.02C2189.78 1412.83 2216.54 1478.88 2216.54 1510.2V1526.14L2200.6 1506.21C2178.39 1477.17 2159.6 1461.23 2134.55 1448.13L2112.35 1436.75L2132.27 1464.08C2149.92 1489.13 2168.71 1528.98 2162.45 1528.98C2160.74 1528.98 2147.65 1520.44 2132.84 1509.63C2105.51 1490.84 2068.5 1469.77 2068.5 1473.76C2068.5 1474.9 2072.49 1484 2077.61 1493.68C2082.17 1503.93 2085.59 1519.87 2084.45 1530.12L2082.74 1548.91L2063.95 1519.31C2041.74 1484.57 2007.01 1450.98 1972.85 1432.19C1959.76 1424.79 1948.94 1416.25 1948.94 1413.97C1948.94 1407.14 1996.2 1413.97 2033.2 1426.5L2063.38 1436.18L2047.44 1419.67C2038.9 1409.99 2017.26 1394.61 2000.18 1384.37C1975.13 1370.13 1971.14 1366.15 1980.82 1365.01C1996.2 1362.73 2058.83 1378.67 2082.74 1390.63L2099.82 1399.74L2085.59 1383.8C2065.09 1361.02 2012.14 1327.43 1972.28 1312.63C1953.49 1305.79 1938.69 1297.82 1940.4 1295.54C1948.37 1282.45 2025.8 1284.16 2065.66 1298.96C2084.45 1305.79 2054.27 1275.62 2020.68 1253.98L1991.64 1235.76L2013.28 1234.05C2025.8 1232.91 2043.45 1234.62 2053.13 1238.04C2062.24 1241.46 2071.35 1243.73 2071.92 1242.59C2073.06 1241.46 2057.69 1220.39 2037.76 1195.34C2004.17 1153.2 1983.67 1133.85 1939.26 1103.1L1921.04 1090L1940.97 1123.03C1951.78 1140.68 1960.33 1160.04 1960.33 1166.3C1960.33 1174.84 1955.77 1173.13 1934.7 1154.34C1909.65 1132.71 1856.7 1101.39 1829.37 1093.42C1817.41 1089.43 1819.12 1093.42 1841.9 1118.47C1864.1 1142.96 1885.74 1181.67 1877.77 1181.67C1876.06 1181.67 1862.39 1172.56 1846.45 1161.17C1820.26 1142.39 1769.59 1119.04 1754.78 1119.04C1750.8 1119.04 1759.91 1131.57 1774.71 1147.51C1803.75 1178.83 1823.68 1218.68 1823.68 1246.01V1264.23L1806.03 1242.59C1790.65 1224.37 1744.54 1187.37 1736 1187.37C1734.29 1187.37 1738.84 1199.32 1745.11 1214.13C1760.48 1248.29 1765.6 1332.55 1755.35 1369.56L1747.95 1395.18L1743.4 1375.26C1741.12 1364.44 1736.56 1340.52 1732.58 1322.31C1726.32 1289.85 1696.71 1224.94 1677.35 1200.46C1667.1 1187.93 1667.1 1187.93 1667.1 1226.08C1667.1 1255.69 1664.26 1269.35 1653.44 1288.14C1645.47 1301.81 1637.5 1312.63 1635.79 1312.63C1633.51 1312.63 1630.09 1296.68 1628.39 1276.76C1626.68 1257.4 1620.41 1228.93 1615.29 1213.56L1605.61 1185.66L1595.93 1211.28C1585.68 1238.61 1566.89 1272.77 1561.77 1272.77C1560.06 1272.77 1560.06 1244.3 1560.63 1209C1562.91 1147.51 1554.37 1082.6 1544.12 1075.77C1541.27 1074.06 1538.99 1079.76 1538.99 1088.87C1538.99 1097.41 1532.16 1119.04 1523.62 1136.12L1508.25 1167.44L1501.42 1104.24C1495.72 1051.29 1480.35 982.394 1466.12 942.538C1462.7 932.29 1464.98 934.567 1515.65 978.408ZM694.626 962.466C709.999 967.021 727.649 976.131 733.343 982.394C743.591 993.781 743.591 994.351 727.08 1011.43C716.262 1021.68 701.458 1029.65 687.794 1031.93L665.019 1035.34L686.655 1016.56C706.583 998.906 707.721 997.197 698.042 991.504C692.348 988.088 658.187 985.241 619.47 985.241C551.715 985.241 551.146 985.241 506.735 1007.45C482.253 1019.4 460.617 1027.37 458.339 1025.1C449.799 1016.56 504.458 976.7 539.189 965.882C581.892 952.218 654.201 950.509 694.626 962.466ZM1123.36 1341.66C1163.21 1366.15 1260.01 1478.31 1260.01 1499.95C1260.01 1503.36 1252.03 1502.22 1240.08 1497.1C1212.18 1485.71 1211.61 1486.85 1230.97 1511.33C1249.76 1534.68 1283.35 1598.45 1279.36 1602.43C1278.23 1604.14 1269.12 1599.59 1260.01 1592.75C1241.79 1579.09 1232.68 1576.24 1241.79 1587.06C1252.03 1599.59 1270.25 1661.65 1273.67 1696.95L1277.66 1731.11L1264.56 1714.03C1241.22 1683.28 1219.01 1659.94 1213.89 1659.94C1210.47 1659.94 1210.47 1663.92 1213.32 1669.62C1224.71 1690.68 1237.23 1763.56 1237.23 1805.7V1849.54L1205.92 1815.94L1175.17 1782.35L1174.6 1809.11C1174.6 1843.84 1166.63 1847.83 1158.09 1817.65C1147.27 1781.78 1126.2 1741.93 1102.29 1712.89C1082.36 1688.41 1081.79 1687.27 1094.89 1690.68C1115.39 1696.95 1152.97 1716.31 1166.06 1727.69C1198.51 1755.02 1199.08 1755.59 1194.53 1733.96C1187.13 1696.95 1169.48 1652.54 1148.98 1618.94C1130.19 1587.06 1129.62 1585.35 1142.15 1588.77C1148.98 1591.05 1163.21 1597.31 1173.46 1603.57C1183.14 1609.27 1191.68 1612.11 1191.68 1609.83C1191.68 1600.16 1135.88 1551.19 1106.28 1534.68L1074.96 1517.03L1104 1518.74L1133.61 1520.44L1122.22 1504.5C1115.96 1495.39 1105.71 1485.14 1100.01 1481.73C1093.75 1477.74 1089.2 1473.19 1089.2 1470.34C1089.2 1464.08 1125.64 1480.59 1155.24 1501.09C1177.45 1516.46 1180.29 1517.03 1174.6 1506.78C1171.18 1499.95 1151.26 1476.6 1130.76 1454.4C1096.03 1417.96 1094.32 1414.54 1109.69 1418.53C1118.8 1420.24 1138.73 1428.21 1154.1 1435.04L1182 1448.13L1156.38 1421.94C1111.97 1376.39 1083.5 1329.71 1099.44 1329.71C1101.72 1329.71 1112.54 1335.4 1123.36 1341.66ZM2007.58 1511.33C2036.05 1530.12 2053.13 1557.45 2059.4 1594.46L2062.81 1617.24L2044.59 1594.46C2034.34 1581.94 2008.72 1554.61 1987.09 1532.97C1948.94 1495.96 1947.8 1494.82 1964.31 1494.82C1973.42 1494.82 1992.78 1502.22 2007.58 1511.33ZM2141.38 1608.7C2154.48 1628.05 2157.9 1642.86 2148.79 1642.86C2143.66 1642.86 2114.05 1596.17 2114.05 1588.77C2114.05 1579.66 2129.43 1591.05 2141.38 1608.7ZM2091.28 1675.88C2099.25 1682.71 2103.24 1690.68 2101.53 1699.79C2099.82 1712.32 2098.68 1711.75 2083.88 1689.55C2067.37 1664.49 2070.21 1658.8 2091.28 1675.88ZM1125.07 1831.89C1132.47 1842.14 1141.58 1859.22 1145.56 1870.03C1153.53 1893.95 1154.1 1933.23 1146.13 1933.23C1143.29 1933.23 1140.44 1929.82 1140.44 1925.83C1140.44 1922.42 1135.31 1912.74 1129.62 1905.34L1119.37 1892.24L1107.42 1912.74C1100.58 1924.12 1093.18 1933.23 1090.9 1933.23C1088.63 1933.23 1086.92 1919.57 1088.06 1903.06C1089.77 1876.3 1081.23 1830.18 1069.27 1800.57C1065.28 1790.32 1066.42 1790.89 1088.06 1801.71C1100.58 1807.97 1117.66 1821.64 1125.07 1831.89ZM2194.33 2016.93C2202.88 2025.47 2214.26 2041.98 2219.39 2052.8C2225.08 2063.62 2234.76 2078.99 2240.45 2086.96C2255.26 2105.75 2267.78 2136.5 2267.78 2153.01C2267.78 2177.49 2259.24 2167.24 2245.01 2125.68C2234.76 2096.07 2221.66 2073.3 2195.47 2041.41C2175.55 2016.93 2159.6 1995.86 2159.6 1993.59C2159.6 1987.32 2178.96 1999.85 2194.33 2016.93ZM980.447 2389.87C987.849 2377.91 1019.73 2413.21 1024.29 2438.26C1028.84 2463.31 1022.01 2476.41 1001.51 2478.69C982.725 2480.96 961.658 2468.44 950.271 2447.37C927.496 2405.81 927.496 2406.38 934.329 2391.57C940.592 2377.91 941.161 2377.91 958.242 2387.59C972.476 2395.56 976.462 2395.56 980.447 2389.87ZM903.583 2390.43C909.846 2394.99 913.262 2401.82 911.554 2406.38C909.846 2410.93 912.124 2424.03 916.109 2436.55C928.635 2471.85 927.496 2474.13 896.751 2474.13C881.378 2474.13 864.297 2470.72 858.603 2466.16C847.785 2458.19 847.785 2457.62 858.034 2446.23C869.99 2433.14 866.574 2430.86 849.493 2439.97C839.814 2445.66 838.675 2443.96 838.675 2426.3C838.675 2393.28 877.962 2371.65 903.583 2390.43ZM1144.42 2394.99C1174.6 2409.79 1189.97 2434.85 1180.86 2454.77C1172.89 2472.99 1154.1 2472.42 1149.55 2454.2C1147.27 2446.23 1142.72 2439.97 1138.73 2439.4C1131.33 2439.4 1094.89 2396.7 1094.89 2388.16C1094.89 2379.05 1118.8 2382.46 1144.42 2394.99ZM370.088 2394.99C374.642 2399.54 374.642 2405.24 370.657 2414.92C365.533 2426.3 366.102 2430.86 376.351 2441.68C386.03 2451.93 387.169 2456.48 382.044 2461.61C371.226 2472.42 335.356 2469.58 318.275 2456.48C299.486 2441.68 299.486 2428.58 318.275 2406.38C333.648 2388.16 358.131 2383.03 370.088 2394.99ZM1090.33 2410.93C1108.55 2429.72 1112.54 2437.12 1110.83 2452.5C1109.12 2468.44 1106.85 2471.85 1093.18 2472.99C1073.25 2475.27 1059.02 2464.45 1063.01 2449.65C1064.71 2442.82 1063.01 2439.97 1058.45 2441.68C1050.48 2445.09 1024.86 2398.41 1030.55 2392.14C1032.83 2390.43 1041.94 2388.73 1051.05 2388.73C1063.01 2388.73 1074.39 2394.99 1090.33 2410.93ZM278.42 2431.43L277.85 2468.44H257.923C219.206 2468.44 212.943 2443.96 243.119 2413.78C272.726 2384.17 278.989 2387.59 278.42 2431.43ZM465.741 2415.49C465.741 2428.58 469.727 2437.12 479.406 2443.39C496.487 2455.34 486.808 2462.74 452.646 2462.74C434.426 2462.74 424.747 2459.33 414.498 2448.51C387.169 2421.18 401.972 2392.71 442.397 2395.56C464.602 2397.27 465.741 2398.41 465.741 2415.49ZM2004.74 2399.54C2010.43 2402.96 2009.86 2410.36 2001.89 2435.98C1992.21 2467.3 1991.07 2468.44 1971.71 2468.44C1950.65 2468.44 1929.58 2458.19 1940.97 2453.63C1944.38 2451.93 1952.35 2447.37 1958.05 2442.82C1967.73 2435.41 1966.59 2434.85 1947.23 2438.26C1929.01 2441.11 1926.16 2439.97 1929.58 2432C1934.7 2418.9 1971.71 2394.42 1985.95 2394.42C1992.21 2394.42 2000.75 2396.7 2004.74 2399.54ZM2102.67 2402.96C2110.64 2412.64 2106.65 2435.41 2093.56 2455.34C2084.45 2469.58 2062.81 2472.42 2037.76 2462.74C2018.4 2455.91 2018.97 2446.8 2038.9 2438.83C2053.7 2432.57 2054.27 2432 2041.18 2429.72C2023.52 2426.87 2027.51 2417.76 2051.42 2404.67C2075.34 2392.14 2092.99 2391.57 2102.67 2402.96ZM550.576 2429.15C536.912 2444.52 534.065 2438.26 546.022 2420.04C551.715 2410.93 557.409 2406.95 558.548 2410.93C559.686 2414.92 556.27 2422.89 550.576 2429.15ZM2196.04 2413.21C2205.72 2420.04 2205.15 2422.32 2188.07 2447.37C2178.39 2462.17 2169.28 2474.13 2167.57 2474.13C2165.87 2474.13 2155.62 2470.15 2144.23 2465.59C2124.3 2457.05 2124.3 2456.48 2134.55 2448.51C2144.23 2441.11 2144.23 2440.54 2135.69 2439.97C2122.03 2439.97 2122.59 2431.43 2136.83 2417.19C2149.92 2404.1 2180.67 2401.82 2196.04 2413.21ZM794.834 2438.83C797.681 2461.61 797.112 2463.31 785.724 2461.61C769.782 2459.33 766.935 2443.39 778.892 2425.17C790.279 2407.52 790.849 2408.09 794.834 2438.83ZM1901.11 2445.66C1901.68 2456.48 1898.83 2462.74 1893.71 2462.74C1882.89 2462.74 1878.34 2446.8 1886.31 2437.12C1896.56 2424.6 1900.54 2426.87 1901.11 2445.66ZM2258.67 2435.98C2267.78 2442.82 2267.21 2443.96 2254.12 2456.48C2238.75 2471.28 2223.94 2470.72 2214.26 2455.34C2209.14 2446.8 2210.28 2443.39 2218.82 2436.55C2232.48 2426.87 2245.58 2426.3 2258.67 2435.98Z" fill="#072F92"></path>
<path d="M596.695 753.509C593.279 755.787 586.446 764.327 580.753 772.867C568.227 792.795 538.62 794.503 511.29 777.422C491.362 764.896 477.128 767.174 468.588 783.685C458.908 801.336 470.865 821.264 493.07 825.249C503.888 827.527 519.83 834.359 527.802 840.622L542.605 852.009V829.804C542.605 814.431 545.452 805.891 551.146 803.613C559.686 800.766 564.241 807.029 573.351 836.636C576.767 846.885 577.906 846.885 592.709 833.22C601.25 825.249 616.053 814.431 626.302 809.307C652.493 796.211 659.894 780.269 647.938 762.619C641.675 752.94 634.273 748.954 620.608 748.954C610.929 748.954 599.542 751.232 596.695 753.509Z" fill="#072F92"></path>
</svg>