<svg width="2500" height="396" viewBox="0 0 2500 396" fill="none" xmlns="http://www.w3.org/2000/svg">
<path d="M0 389.892V377.167H176.058C192.002 377.167 205.571 374.792 216.765 370.041C228.299 364.951 237.119 355.62 243.225 342.046C249.331 328.473 252.384 308.961 252.384 283.512C252.384 260.437 249.501 242.622 243.734 230.067C237.967 217.172 228.469 208.18 215.239 203.09C202.009 198 183.86 195.455 160.793 195.455L145.528 180.185C180.807 180.185 212.355 184.087 240.172 191.892C267.988 199.357 289.868 210.895 305.812 226.504C322.095 242.113 330.236 261.964 330.236 286.057C330.236 306.416 324.3 324.401 312.427 340.01C300.893 355.62 284.95 367.835 264.596 376.658C244.582 385.481 221.854 389.892 196.412 389.892H0ZM55.9723 382.257V6.10798H124.157V382.257H55.9723ZM108.383 195.455V180.185H176.058C191.663 180.185 204.214 178.149 213.712 174.077C223.55 169.666 230.674 161.861 235.084 150.663C239.833 139.126 242.207 122.499 242.207 100.781C242.207 77.7069 239.833 60.401 235.084 48.8638C230.334 36.9871 223.041 29.0129 213.203 24.9409C203.366 20.8689 190.984 18.8329 176.058 18.8329H0V6.10798H196.412C218.801 6.10798 238.985 10.18 256.964 18.3239C274.943 26.1285 289.19 36.9872 299.706 50.8997C310.561 64.8123 315.989 80.7609 315.989 98.7455C315.989 117.748 309.713 134.545 297.162 149.136C284.61 163.727 267.819 175.095 246.787 183.239C225.755 191.383 202.179 195.455 176.058 195.455H108.383Z" fill="#072F92"></path>
<path d="M382.201 382.257V14.2519H438.174V382.257H382.201ZM342.003 389.892V377.167H478.881V389.892H342.003ZM342.003 18.8329V6.10798H438.174V18.8329H342.003Z" fill="#072F92"></path>
<path d="M570.42 396C550.745 396 534.632 390.74 522.08 380.221C509.868 369.362 503.762 356.129 503.762 340.519V168.478H559.735V338.992C559.735 351.548 562.279 361.049 567.367 367.496C572.455 373.943 579.41 377.167 588.229 377.167C598.745 377.167 608.413 372.586 617.233 363.424C626.392 354.262 633.686 341.877 639.113 326.267C644.88 310.658 647.764 293.182 647.764 273.841L657.94 350.19H645.728C638.265 363.424 628.597 374.452 616.724 383.275C604.852 391.758 589.417 396 570.42 396ZM647.764 389.892V377.167H743.934V389.892H647.764ZM464.073 173.568V160.843H559.735V173.568H464.073ZM647.764 381.748V168.478H703.736V381.748H647.764ZM606.039 173.568V160.843H703.736V173.568H606.039Z" fill="#072F92"></path>
<path d="M864.688 396C848.405 396 832.97 392.776 818.384 386.329C804.136 379.542 791.585 370.55 780.73 359.352C769.874 347.815 761.394 334.92 755.288 320.668C749.182 306.077 746.128 290.977 746.128 275.368C746.128 254.668 750.878 235.157 760.376 216.833C770.214 198.509 783.783 183.578 801.083 172.041C818.384 160.504 838.737 154.735 862.144 154.735C880.462 154.735 896.914 158.977 911.501 167.46C926.427 175.604 938.13 187.141 946.611 202.072C955.092 217.003 959.332 234.139 959.332 253.481V256.535H792.942V243.81H900.307V214.797C900.307 183.918 886.738 168.478 859.6 168.478C848.405 168.478 839.246 171.871 832.122 178.658C825.338 185.105 820.249 196.134 816.857 211.743C813.804 227.352 812.278 248.56 812.278 275.368C812.278 302.853 813.974 324.231 817.366 339.501C820.758 354.771 826.355 365.46 834.158 371.568C842.299 377.676 852.985 380.73 866.214 380.73C884.193 380.73 899.798 376.149 913.028 366.987C926.257 357.825 937.452 341.877 946.611 319.141H960.858C954.074 342.895 942.031 361.728 924.731 375.64C907.77 389.213 887.755 396 864.688 396Z" fill="#072F92"></path>
<path d="M1230 396C1203.54 396 1179.8 390.571 1158.76 379.712C1137.73 368.853 1119.75 354.262 1104.83 335.938C1090.24 317.275 1078.88 296.406 1070.74 273.332C1062.93 249.918 1059.03 225.995 1059.03 201.563C1059.03 175.095 1063.44 149.815 1072.26 125.722C1081.42 101.29 1093.97 79.7429 1109.92 61.0797C1125.86 42.0771 1144.52 27.1465 1165.89 16.2879C1187.6 5.42931 1211.18 0 1236.62 0C1252.56 0 1267.32 2.54498 1280.89 7.63495C1294.46 12.7249 1307.52 20.6992 1320.07 31.5578L1342.46 6.10798H1355.18V121.141H1342.46C1338.72 102.139 1332.79 84.6632 1324.65 68.7146C1316.5 52.4267 1305.31 39.5321 1291.06 30.0309C1277.15 20.1902 1259.01 15.2699 1236.62 15.2699C1222.37 15.2699 1209.31 17.9846 1197.44 23.4139C1185.9 28.8432 1175.73 38.5141 1166.91 52.4267C1158.43 66 1151.81 85.1722 1147.06 109.943C1142.65 134.375 1140.45 165.763 1140.45 204.108C1140.45 239.398 1142.48 268.581 1146.55 291.655C1150.62 314.391 1156.39 332.206 1163.85 345.1C1171.32 357.995 1180.48 366.987 1191.33 372.077C1202.53 377.167 1214.91 379.712 1228.48 379.712C1250.53 379.712 1267.66 374.452 1279.87 363.933C1292.42 353.075 1298.7 337.974 1298.7 318.632V245.846H1374.51V258.062C1374.51 286.905 1367.73 311.676 1354.16 332.375C1340.93 352.735 1323.29 368.514 1301.24 379.712C1279.53 390.571 1255.78 396 1230 396ZM1236.11 253.481V240.756H1404.03V253.481H1236.11Z" fill="#072F92"></path>
<path d="M1528.85 396C1512.22 396 1496.62 392.607 1482.03 385.82C1467.79 379.033 1455.06 370.041 1443.87 358.843C1433.01 347.306 1424.53 334.411 1418.43 320.159C1412.32 305.568 1409.27 290.638 1409.27 275.368C1409.27 260.098 1412.32 245.337 1418.43 231.085C1424.53 216.494 1433.01 203.599 1443.87 192.401C1455.06 180.864 1467.79 171.702 1482.03 164.915C1496.62 158.129 1512.22 154.735 1528.85 154.735C1545.47 154.735 1560.9 158.129 1575.15 164.915C1589.74 171.702 1602.46 180.864 1613.31 192.401C1624.51 203.599 1633.16 216.494 1639.26 231.085C1645.37 245.337 1648.42 260.098 1648.42 275.368C1648.42 290.638 1645.37 305.568 1639.26 320.159C1633.16 334.411 1624.51 347.306 1613.31 358.843C1602.46 370.041 1589.74 379.033 1575.15 385.82C1560.9 392.607 1545.47 396 1528.85 396ZM1528.85 380.73C1541.74 380.73 1552.08 377.846 1559.88 372.077C1567.69 366.308 1573.28 355.959 1576.68 341.028C1580.41 325.758 1582.27 303.871 1582.27 275.368C1582.27 246.864 1580.41 224.977 1576.68 209.707C1573.28 194.437 1567.69 184.087 1559.88 178.658C1552.08 172.889 1541.74 170.005 1528.85 170.005C1515.96 170.005 1505.61 172.889 1497.81 178.658C1490 184.087 1484.24 194.437 1480.51 209.707C1477.11 224.977 1475.42 246.864 1475.42 275.368C1475.42 303.871 1477.11 325.758 1480.51 341.028C1484.24 355.959 1490 366.308 1497.81 372.077C1505.61 377.846 1515.96 380.73 1528.85 380.73Z" fill="#072F92"></path>
<path d="M1660.39 389.892V377.167H1700.59V173.568H1660.39V160.843H1756.56V201.054H1758.6C1767.08 182.73 1776.75 170.514 1787.6 164.406C1798.8 157.959 1809.14 154.735 1818.64 154.735C1829.5 154.735 1837.98 157.959 1844.08 164.406C1850.53 170.514 1853.75 179.337 1853.75 190.874C1853.75 201.393 1850.53 209.198 1844.08 214.288C1837.98 219.039 1831.02 221.414 1823.22 221.414C1816.78 221.414 1810.84 219.717 1805.41 216.324C1800.32 212.591 1797.78 207.501 1797.78 201.054C1797.78 199.018 1797.95 197.321 1798.29 195.964C1798.97 194.267 1799.31 192.571 1799.31 190.874C1799.31 189.177 1798.8 187.65 1797.78 186.293C1796.76 184.936 1794.56 184.257 1791.16 184.257C1786.75 184.257 1781.84 187.82 1776.41 194.946C1770.98 201.733 1766.23 211.064 1762.16 222.941C1758.43 234.478 1756.56 247.373 1756.56 261.625V377.167H1802.36V389.892H1660.39Z" fill="#072F92"></path>
<path d="M1908.28 382.257V173.568H1964.26V382.257H1908.28ZM1868.09 389.892V377.167H2004.96V389.892H1868.09ZM1863 178.149V165.424H1964.26V178.149H1863ZM1935.25 85.5116C1926.09 85.5116 1918.12 82.2879 1911.34 75.8406C1904.89 69.054 1901.67 61.0797 1901.67 51.9177C1901.67 42.7558 1904.89 34.9511 1911.34 28.5038C1918.12 21.7172 1926.09 18.3239 1935.25 18.3239C1944.41 18.3239 1952.21 21.7172 1958.66 28.5038C1965.44 34.9511 1968.84 42.7558 1968.84 51.9177C1968.84 61.0797 1965.44 69.054 1958.66 75.8406C1952.21 82.2879 1944.41 85.5116 1935.25 85.5116Z" fill="#072F92"></path>
<path d="M2039.6 382.257V14.2519H2095.58V382.257H2039.6ZM1999.41 389.892V377.167H2136.28V389.892H1999.41ZM1999.41 18.8329V6.10798H2095.58V18.8329H1999.41Z" fill="#072F92"></path>
<path d="M2164.73 382.257V14.2519H2220.7V382.257H2164.73ZM2124.53 389.892V377.167H2261.41V389.892H2124.53ZM2124.53 18.8329V6.10798H2220.7V18.8329H2124.53Z" fill="#072F92"></path>
<path d="M2325.98 396C2307.66 396 2292.73 390.74 2281.2 380.221C2269.67 369.702 2263.9 355.959 2263.9 338.992C2263.9 322.704 2269.33 308.792 2280.18 297.254C2291.38 285.717 2307.15 276.895 2327.5 270.787C2347.86 264.339 2371.94 261.116 2399.76 261.116V199.018C2399.76 190.195 2396.37 183.239 2389.58 178.149C2382.8 173.059 2373.47 170.514 2361.6 170.514C2351.42 170.514 2343.11 172.211 2336.66 175.604C2330.22 178.997 2326.99 183.409 2326.99 188.838C2326.99 192.231 2328.18 195.285 2330.56 198C2332.93 200.715 2334.12 204.956 2334.12 210.725C2334.12 217.851 2331.4 223.789 2325.98 228.54C2320.89 232.951 2314.27 235.157 2306.13 235.157C2297.99 235.157 2291.55 232.781 2286.8 228.031C2282.05 222.941 2279.67 216.663 2279.67 209.198C2279.67 199.018 2283.74 189.856 2291.89 181.712C2300.03 173.229 2311.05 166.612 2324.96 161.861C2338.87 157.111 2354.47 154.735 2371.77 154.735C2396.54 154.735 2416.72 159.656 2432.32 169.496C2447.93 178.997 2455.73 191.553 2455.73 207.162V361.897C2455.73 365.29 2456.75 368.175 2458.78 370.55C2461.16 372.586 2463.87 373.604 2466.93 373.604C2469.98 373.604 2473.54 372.077 2477.61 369.023C2481.68 365.63 2486.77 360.54 2492.88 353.753L2500 361.897C2484.06 384.632 2466.25 396 2446.57 396C2434.7 396 2424.86 392.776 2417.06 386.329C2409.6 379.542 2404.51 370.211 2401.79 358.334H2399.76C2393.31 369.193 2383.14 378.185 2369.23 385.311C2355.32 392.437 2340.9 396 2325.98 396ZM2356.51 368.005C2369.4 368.005 2379.74 363.254 2387.55 353.753C2395.69 343.913 2399.76 331.188 2399.76 315.578V274.35C2374.32 274.35 2355.15 279.1 2342.26 288.602C2329.37 297.763 2322.92 311.337 2322.92 329.321C2322.92 341.537 2325.81 351.039 2331.57 357.825C2337.68 364.612 2345.99 368.005 2356.51 368.005Z" fill="#072F92"></path>
</svg>